Coordinates
version=1
nRows=39
nColumns=6
inDegrees=yes

Units are S.I. units (second, meters, Newtons, ...)
If the header above contains a line with 'inDegrees', this indicates whether rotational values are in degrees (yes) or radians (no).

endheader
time	foot_tx	hip_flexion_r	knee_angle_r	ankle_angle_r	lumbar
     38.60000000	      0.24126887	     55.95148673	    -84.55371560	      3.35612589	    -34.34394614
     38.61000000	      0.24126723	     55.98070209	    -84.55205960	      3.35390493	    -34.37388753
     38.62000000	      0.24126550	     56.01039707	    -84.54949353	      3.35129494	    -34.40660369
     38.63000000	      0.24126441	     56.03939994	    -84.54546345	      3.34806717	    -34.44368240
     38.64000000	      0.24126435	     56.06704476	    -84.54138176	      3.34512311	    -34.48484202
     38.65000000	      0.24124931	     56.06580009	    -84.53647690	      3.34598882	    -34.55987088
     38.66000000	      0.24124708	     56.10179641	    -84.53244597	      3.34282561	    -34.59971001
     38.67000000	      0.24124870	     56.13618624	    -84.52658872	      3.33872338	    -34.64618014
     38.68000000	      0.24123618	     56.13061599	    -84.51864592	      3.33870592	    -34.73984491
     38.69000000	      0.24123627	     56.17309426	    -84.51211600	      3.33370479	    -34.78938367
     38.70000000	      0.24122667	     56.17218123	    -84.50156959	      3.33153825	    -34.89210532
     38.71000000	      0.24123139	     56.22132039	    -84.49205046	      3.32369426	    -34.95067626
     38.72000000	      0.24122423	     56.21604558	    -84.47823776	      3.31964260	    -35.07570573
     38.73000000	      0.24122403	     56.23872171	    -84.46330084	      3.31117225	    -35.18275331
     38.74000000	      0.24122591	     56.26313853	    -84.44646737	      3.30095775	    -35.29997545
     38.75000000	      0.24122974	     56.28974576	    -84.42783317	      3.28906190	    -35.42784597
     38.76000000	      0.24123379	     56.31855708	    -84.40798636	      3.27611962	    -35.56669087
     38.77000000	      0.24123734	     56.35016987	    -84.38776604	      3.26296552	    -35.71601209
     38.78000000	      0.24123888	     56.38398377	    -84.36769366	      3.25035025	    -35.87674969
     38.79000000	      0.24123707	     56.42368117	    -84.34833156	      3.23817883	    -36.04565179
     38.80000000	      0.24123044	     56.46615099	    -84.32933490	      3.22684805	    -36.22668252
     38.81000000	      0.24121818	     56.51294205	    -84.31066133	      3.21611465	    -36.41876553
     38.82000000	      0.24120113	     56.56620576	    -84.29230791	      3.20570350	    -36.61983667
     38.83000000	      0.24117712	     56.62506789	    -84.27401203	      3.19574917	    -36.83087371
     38.84000000	      0.24114661	     56.69302993	    -84.25624535	      3.18624464	    -37.04774770
     38.85000000	      0.24110922	     56.77027688	    -84.23861073	      3.17721541	    -37.27008795
     38.86000000	      0.24106741	     56.85972827	    -84.22084466	      3.16825702	    -37.49437936
     38.87000000	      0.24101564	     56.96065504	    -84.20416704	      3.16080338	    -37.72085325
     38.88000000	      0.24096237	     57.07513964	    -84.18690721	      3.15330099	    -37.94741743
     38.89000000	      0.24091369	     57.24728220	    -84.17180170	      3.14222842	    -38.12830181
     38.90000000	      0.24085597	     57.34831268	    -84.15193855	      3.13858326	    -38.39673469
     38.91000000	      0.24081007	     57.53699173	    -84.13585297	      3.12862035	    -38.58875453
     38.92000000	      0.24076298	     57.68076259	    -84.11629544	      3.12357173	    -38.84183453
     38.93000000	      0.24072875	     57.88712711	    -84.09958793	      3.11461426	    -39.04499499
     38.94000000	      0.24069951	     58.10002342	    -84.08285634	      3.10687839	    -39.25667563
     38.95000000	      0.24067595	     58.32128055	    -84.06652679	      3.10065294	    -39.47522602
     38.96000000	      0.24065727	     58.55237592	    -84.05080278	      3.09610472	    -39.69959916
     38.97000000	      0.24064268	     58.79453097	    -84.03570818	      3.09321843	    -39.92918337
     38.98000000	      0.24063138	     59.04870944	    -84.02122017	      3.09194716	    -40.16354176
